<svg xmlns="http://www.w3.org/2000/svg" class="icon icon-tabler icon-tabler-coin-bitcoin" width="32" height="32" viewBox="0 0 24 24" stroke-width="1" stroke="#000000" fill="none" stroke-linecap="round" stroke-linejoin="round">
  <path stroke="none" d="M0 0h24v24H0z" fill="none"/>
  <path d="M12 12m-9 0a9 9 0 1 0 18 0a9 9 0 1 0 -18 0" />
  <path d="M9 8h4.09c1.055 0 1.91 .855 1.91 1.91v4.18c0 1.055 -.855 1.91 -1.91 1.91h-4.09" />
  <path d="M10 12h4" />
  <path d="M12 7v1" />
  <path d="M12 16v1" />
  <path d="M11 7v1" />
  <path d="M13 7v1" />
  <path d="M11 16v1" />
  <path d="M13 16v1" />
</svg>